<?xml version="1.0" standalone="no"?>
<!DOCTYPE svg PUBLIC "-//W3C//DTD SVG 20010904//EN"
 "http://www.w3.org/TR/2001/REC-SVG-20010904/DTD/svg10.dtd">
<svg version="1.0" xmlns="http://www.w3.org/2000/svg"
 width="300.000000pt" height="169.000000pt" viewBox="0 0 300.000000 169.000000"
 preserveAspectRatio="xMidYMid meet">
<metadata>
Created by potrace 1.10, written by Peter Selinger 2001-2011
</metadata>
<g transform="translate(0.000000,169.000000) scale(0.100000,-0.100000)"
fill="#000000" stroke="none">
<path d="M1090 1493 c-3 -111 -9 -205 -13 -209 -4 -5 -54 -8 -110 -7 -108 2
-137 -8 -137 -49 0 -16 8 -18 63 -18 57 0 66 -3 109 -37 26 -21 50 -48 54 -60
3 -12 12 -27 19 -33 17 -14 12 -80 -6 -91 -13 -8 -182 -3 -207 6 -19 7 -52
-13 -52 -30 0 -9 5 -24 12 -35 10 -16 9 -23 -9 -42 -36 -39 2 -92 49 -67 12 6
41 8 72 4 76 -9 134 -7 154 5 13 9 4 10 -40 6 -36 -4 -59 -2 -64 5 -12 21 11
28 66 20 l56 -7 -4 28 c-4 27 -7 28 -56 28 -46 0 -53 -3 -71 -30 -17 -26 -26
-30 -65 -30 -25 0 -52 -4 -60 -10 -18 -11 -41 6 -34 25 4 9 22 11 67 8 61 -5
63 -4 86 27 23 31 26 32 77 27 44 -5 54 -3 54 10 0 13 -19 14 -135 11 -113 -2
-135 -1 -133 11 2 12 26 14 128 12 68 -1 128 -5 133 -8 5 -3 23 11 41 30 49
54 74 56 164 13 152 -71 282 -71 408 -1 82 46 106 45 157 -6 l41 -41 135 3
c92 2 136 0 138 -8 6 -16 -17 -27 -30 -14 -7 7 -56 11 -129 11 -100 0 -117 -2
-112 -15 5 -11 21 -15 60 -15 48 0 56 -3 76 -30 18 -25 29 -30 63 -30 22 0 46
5 53 12 15 15 37 -4 29 -25 -5 -12 -19 -14 -69 -10 -60 5 -73 12 -96 49 -4 6
-31 14 -60 17 -50 6 -53 5 -50 -15 5 -32 32 -45 63 -28 29 16 52 2 42 -24 -7
-17 -37 -22 -37 -6 0 6 -12 10 -27 10 -27 0 -28 -2 -28 -51 l0 -50 130 2 c105
2 130 0 130 -12 0 -11 -25 -13 -132 -10 -116 2 -133 1 -133 -13 0 -13 14 -16
80 -16 47 0 80 -4 80 -10 0 -6 -34 -10 -82 -10 -97 0 -98 -12 -1 -14 37 0 68
-5 68 -11 0 -5 -30 -8 -71 -6 l-71 3 -1 -36 c-2 -40 7 -46 26 -16 11 17 23 20
95 20 46 0 88 5 93 10 8 8 14 7 23 -3 9 -11 8 -17 -3 -26 -10 -8 -16 -9 -21
-1 -3 5 -40 10 -83 10 -73 0 -79 -2 -102 -28 -24 -27 -25 -34 -24 -149 1 -66
5 -126 9 -133 12 -20 -27 -47 -85 -59 -110 -24 -332 -34 -486 -23 -144 11
-258 32 -279 53 -6 6 -5 16 3 29 8 13 12 63 12 145 0 103 -2 123 -14 119 -9
-3 -22 5 -32 21 -18 27 -19 27 -116 23 -84 -3 -98 -1 -96 11 3 12 20 15 98 13
87 -3 97 -5 117 -27 30 -34 43 -31 43 11 l0 35 -82 -2 -83 -2 -2 29 -2 29 84
-3 c74 -3 85 -1 85 13 0 15 -15 17 -140 13 -119 -2 -140 -1 -140 12 0 13 21
14 140 12 89 -3 140 0 140 6 0 13 -271 21 -287 9 -37 -27 2 -67 57 -60 39 6
40 5 40 -26 0 -29 -3 -32 -27 -31 -16 1 -33 2 -39 1 -17 -2 -25 -30 -14 -50 8
-16 21 -18 102 -14 88 4 94 3 121 -21 26 -24 28 -32 32 -121 4 -73 1 -103 -10
-125 -8 -16 -12 -36 -9 -45 12 -31 81 -53 219 -70 60 -8 404 -8 448 0 18 3 48
7 67 9 49 6 91 17 121 32 l26 13 -4 136 c-3 116 -1 141 14 166 17 28 20 29 88
29 39 0 76 -5 81 -10 26 -26 68 27 44 55 -6 8 -26 15 -43 17 -22 2 -33 9 -35
22 -5 26 16 36 60 30 29 -5 38 -3 47 13 7 15 7 25 -3 39 -13 17 -26 18 -135
15 l-121 -3 0 24 c0 33 9 39 33 27 14 -8 26 -8 43 1 16 9 46 11 93 7 58 -5 72
-3 85 12 21 23 20 34 -2 54 -20 19 -52 23 -52 7 0 -18 -67 -12 -74 7 -11 27 8
35 53 23 49 -13 71 -2 71 36 0 28 5 27 -135 28 l-110 1 -3 40 c-6 73 4 98 59
140 43 33 57 38 96 36 82 -3 104 17 62 55 -17 15 -33 18 -99 15 -130 -5 -120
-23 -122 217 -2 222 -6 196 -10 -66 l-3 -162 108 0 c65 0 107 -4 107 -10 0 -5
7 -10 15 -10 8 0 15 -4 15 -10 0 -6 -29 -10 -68 -10 -67 0 -68 0 -112 -45 -24
-25 -50 -45 -56 -45 -9 0 -11 -18 -7 -65 3 -36 2 -73 -2 -82 -6 -16 -9 -14
-21 10 -8 15 -20 27 -27 27 -7 0 -23 12 -36 25 -13 14 -35 26 -50 26 -24 2
-24 2 -3 6 13 3 42 -3 65 -11 36 -14 39 -14 23 -1 -19 15 -19 15 -1 15 40 0
-2 19 -47 21 -39 3 -53 -1 -75 -22 -42 -38 -74 -56 -133 -73 -154 -46 -354 16
-412 127 -29 54 -31 166 -5 214 21 39 73 89 107 103 14 6 30 20 35 33 7 16 25
25 65 35 95 22 260 -3 260 -41 0 -8 10 -18 23 -24 42 -19 90 -67 108 -108 23
-49 25 -159 4 -195 -21 -37 -19 -40 30 -38 55 2 72 18 19 18 -33 0 -36 2 -29
23 17 48 17 144 1 176 -13 25 -14 31 -3 31 19 0 45 -30 58 -68 13 -39 32 -43
23 -4 -12 47 -31 77 -61 92 -15 8 -39 26 -53 40 -39 39 -131 105 -168 120 -44
17 -196 16 -244 -1 -34 -13 -67 -37 -157 -115 -20 -17 -50 -40 -68 -52 -18
-13 -35 -36 -40 -55 -5 -21 -10 37 -13 173 l-5 205 -5 -202z m95 -150 c-24
-55 -28 -111 -12 -159 9 -27 14 -50 12 -53 -2 -2 -25 18 -51 43 -41 41 -50 46
-77 40 -27 -6 -29 -4 -24 15 5 19 0 20 -87 24 -69 2 -60 3 39 4 73 0 115 -3
95 -7 l-35 -6 30 -9 c17 -4 33 -13 37 -19 4 -6 8 8 8 32 0 45 21 97 42 105 24
10 30 7 23 -10z m-162 -151 c48 -47 73 -53 80 -19 l4 22 8 -22 c4 -13 14 -23
21 -23 20 0 17 -18 -3 -23 -10 -3 1 -5 24 -6 60 -1 66 -21 7 -21 -44 0 -46 -1
-28 -15 13 -10 15 -14 5 -15 -8 0 -12 -3 -9 -6 4 -3 18 2 32 12 21 13 32 14
49 6 22 -11 22 -11 -3 -11 -14 -1 -43 -18 -67 -41 l-43 -39 0 47 c0 27 -5 53
-12 60 -8 8 -8 15 2 27 11 13 10 14 -4 9 -11 -4 -34 11 -73 46 l-57 52 -58 -4
c-37 -3 -58 0 -58 6 0 8 23 9 70 6 65 -5 72 -8 113 -48z m-83 -266 c0 -37 -66
-51 -91 -19 -8 9 -9 14 -4 11 6 -4 17 -3 25 3 15 9 70 13 70 5z"/>
<path d="M1340 1429 c0 -17 43 -61 75 -76 37 -19 85 -23 136 -12 49 11 109 50
109 72 0 6 -12 -1 -27 -15 -37 -35 -73 -48 -135 -48 -62 0 -115 24 -139 64
-11 18 -19 24 -19 15z"/>
<path d="M1412 1279 c-68 -12 -130 -44 -142 -73 -38 -102 133 -196 301 -166
81 14 145 51 166 95 33 68 -9 116 -124 140 -75 16 -122 17 -201 4z m178 -38
l25 -9 -30 -12 c-19 -7 -58 -10 -103 -7 -76 5 -96 12 -73 26 18 12 153 14 181
2z m-202 -35 c21 -11 22 -14 8 -25 -20 -17 -20 -55 0 -75 17 -18 32 -20 53 -7
10 6 20 3 33 -12 11 -12 17 -17 14 -11 -3 7 3 14 14 17 10 3 21 0 24 -7 2 -6
5 -3 5 8 1 13 -4 16 -15 12 -30 -12 -54 3 -54 34 0 16 -5 32 -10 35 -7 4 -9
-2 -4 -19 7 -30 -10 -56 -35 -55 -10 0 -11 2 -3 6 6 2 12 9 12 15 0 7 -5 7
-13 -1 -17 -14 -27 -4 -27 26 0 16 4 22 12 17 6 -4 8 -3 5 3 -10 16 10 20 99
20 54 0 90 6 112 17 54 28 92 16 92 -30 0 -69 -110 -121 -231 -111 -128 11
-217 88 -163 141 19 19 41 20 72 2z"/>
<path d="M1615 1164 c14 -27 11 -54 -6 -54 -5 0 -9 5 -9 10 0 7 -6 7 -19 0
-16 -8 -21 -6 -26 11 -4 11 -4 23 -1 26 3 4 6 -1 6 -11 0 -10 5 -14 11 -11 6
4 8 10 5 13 -3 3 0 12 7 21 10 14 10 14 -5 3 -13 -10 -17 -10 -21 0 -2 7 -8 0
-12 -15 -5 -20 -3 -33 10 -47 25 -27 51 -25 71 5 14 21 15 31 6 50 -7 14 -16
25 -21 25 -5 0 -4 -12 4 -26z"/>
<path d="M1885 1232 c-9 -24 -5 -38 6 -19 5 9 19 17 29 17 10 0 21 4 24 9 3 4
-8 8 -24 7 -16 -1 -32 -7 -35 -14z"/>
<path d="M1976 1226 c8 -20 -14 -30 -31 -16 -8 7 -16 11 -16 9 -6 -14 -5 -79
0 -79 4 0 29 23 56 50 l49 50 -32 0 c-23 0 -30 -4 -26 -14z"/>
<path d="M1870 1170 l-35 -29 33 -1 c23 0 32 4 29 13 -2 6 0 20 5 30 12 23 8
22 -32 -13z"/>
<path d="M1352 889 c-29 -16 -61 -43 -71 -59 -10 -17 -21 -27 -25 -23 -4 4 -4
-1 0 -11 6 -15 12 -12 48 23 22 22 66 54 96 70 44 25 50 31 30 31 -14 0 -49
-14 -78 -31z"/>
<path d="M1570 916 c0 -3 19 -15 43 -27 23 -12 59 -37 79 -57 21 -20 41 -33
44 -29 11 11 -25 56 -67 82 -38 25 -99 44 -99 31z"/>
<path d="M1115 871 c-3 -5 3 -12 12 -14 17 -4 17 -5 1 -6 -10 0 -18 -9 -18
-18 1 -38 22 -109 43 -143 12 -19 22 -42 23 -50 1 -8 2 -27 3 -42 1 -21 6 -28
21 -28 11 0 20 -4 20 -10 0 -5 -4 -10 -10 -10 -5 0 -10 -4 -10 -9 0 -5 8 -8
17 -7 9 0 25 -14 36 -34 12 -22 51 -57 105 -95 78 -53 92 -59 137 -59 38 0 63
7 100 29 28 16 53 28 58 27 4 -1 7 3 7 9 0 6 7 8 16 5 8 -3 12 -2 9 4 -3 6 3
10 14 10 12 0 20 6 19 13 -2 6 3 11 10 9 8 -1 11 1 9 5 -3 5 1 17 9 28 8 10
14 15 14 9 0 -5 6 2 13 16 7 13 23 27 37 31 24 7 24 7 -5 9 l-30 2 26 11 c14
7 24 18 22 25 -3 6 0 12 6 12 6 0 11 6 11 14 0 9 13 16 33 19 31 4 31 4 -6 5
-50 2 -73 -11 -80 -45 -16 -79 -110 -170 -202 -194 -53 -15 -162 -6 -203 15
-70 36 -162 144 -162 190 0 8 -8 20 -17 25 -17 10 -17 12 -1 24 27 21 35 134
13 177 -15 28 -19 31 -26 17 -15 -25 -1 -67 19 -60 15 6 15 4 0 -14 -20 -21
-24 -38 -8 -28 12 7 13 -35 1 -53 -12 -20 -29 6 -42 67 -9 42 -8 58 2 78 11
20 11 26 -1 33 -19 12 -37 12 -45 1z"/>
<path d="M1201 873 c9 -2 22 -16 28 -30 6 -14 14 -23 17 -21 12 13 -20 58 -40
57 -15 -1 -16 -3 -5 -6z"/>
<path d="M1853 873 c-15 -6 -17 -39 -3 -48 6 -4 7 -24 4 -48 -7 -44 -32 -102
-41 -94 -10 10 -10 57 0 57 6 0 0 11 -13 25 -24 25 -16 36 9 13 11 -11 13 -9
8 9 -3 13 -1 25 3 28 11 7 6 38 -7 42 -14 5 -36 -41 -36 -74 1 -77 20 -132 45
-133 34 -1 102 204 74 222 -12 9 -25 9 -43 1z"/>
<path d="M950 670 c0 -6 32 -10 75 -10 43 0 75 4 75 10 0 6 -32 10 -75 10 -43
0 -75 -4 -75 -10z"/>
<path d="M1237 644 c3 -9 13 -14 24 -11 11 3 19 0 19 -6 0 -6 3 -7 7 -4 3 4
12 -1 20 -11 12 -16 13 -16 7 1 -6 17 -52 47 -73 47 -6 0 -8 -7 -4 -16z"/>
<path d="M1270 349 c-36 -6 -30 -7 28 -4 41 2 77 6 80 9 7 8 -51 5 -108 -5z"/>
<path d="M1696 351 c-3 -4 18 -9 47 -10 28 -1 49 0 47 2 -10 8 -90 15 -94 8z"/>
</g>
</svg>
