<?xml version="1.0" standalone="no"?>
<!DOCTYPE svg PUBLIC "-//W3C//DTD SVG 20010904//EN"
 "http://www.w3.org/TR/2001/REC-SVG-20010904/DTD/svg10.dtd">
<svg version="1.0" xmlns="http://www.w3.org/2000/svg"
 width="300.000000pt" height="300.000000pt" viewBox="0 0 300.000000 300.000000"
 preserveAspectRatio="xMidYMid meet">
<metadata>
Created by potrace 1.10, written by Peter Selinger 2001-2011
</metadata>
<g transform="translate(0.000000,300.000000) scale(0.100000,-0.100000)"
fill="#000000" stroke="none">
<path d="M57 2962 c-13 -14 -17 -37 -17 -89 0 -97 14 -109 123 -105 58 2 85
-2 96 -12 10 -9 53 -16 122 -21 127 -8 138 -2 163 92 21 81 20 96 -5 118 -19
18 -22 18 -52 3 -73 -37 -145 -40 -190 -7 l-28 20 -26 -20 c-35 -29 -62 -26
-109 9 -46 35 -55 36 -77 12z m43 -33 c0 -25 3 -29 19 -24 26 8 43 -17 39 -62
-3 -37 -4 -38 -45 -41 l-43 -3 0 80 c0 65 3 81 15 81 10 0 15 -10 15 -31z
m184 -50 c-5 -38 -3 -53 7 -59 17 -11 5 -24 -16 -17 -22 9 -22 127 0 127 13 0
15 -9 9 -51z m251 41 c3 -5 -1 -10 -9 -10 -19 0 -21 -16 -3 -24 10 -5 10 -7 0
-12 -7 -3 -13 -21 -13 -40 0 -23 -5 -34 -14 -34 -11 0 -13 9 -9 35 4 24 2 35
-6 35 -7 0 -9 5 -4 13 8 12 9 17 12 37 0 6 10 10 20 10 11 0 23 -4 26 -10z
m-287 -54 c4 -21 -16 -38 -35 -31 -7 2 -13 0 -13 -5 0 -6 11 -10 25 -10 14 0
25 -4 25 -10 0 -5 -16 -10 -35 -10 -34 0 -35 1 -35 38 0 21 3 42 7 46 14 14
58 1 61 -18z m130 -2 c2 -16 -4 -25 -25 -32 l-28 -10 28 -1 c15 -1 27 -6 27
-12 0 -6 -14 -9 -32 -7 -28 3 -34 7 -36 31 -5 44 4 59 35 55 20 -2 29 -9 31
-24z m76 14 c3 -7 7 -27 10 -45 5 -32 5 -32 -32 -30 -30 2 -37 6 -37 22 0 13
8 21 23 23 30 5 28 22 -4 22 -14 0 -23 4 -19 10 9 14 55 12 59 -2z m56 -104
c0 -13 -32 -20 -70 -15 -8 1 -48 2 -87 2 -53 1 -73 5 -73 14 0 10 26 13 115
13 91 0 115 -3 115 -14z"/>
<path d="M99 2853 c-12 -14 -12 -16 0 -8 11 6 13 4 8 -9 -5 -13 -2 -17 11 -14
21 4 30 48 9 48 -8 0 -21 -8 -28 -17z"/>
<path d="M2891 2905 c-11 -20 -21 -44 -20 -53 0 -14 2 -13 9 3 8 19 8 19 17
-4 9 -22 11 -19 17 28 4 29 5 55 3 58 -3 2 -14 -12 -26 -32z"/>
<path d="M1415 2815 c-44 -7 -120 -27 -170 -45 -49 -17 -110 -36 -134 -41 -54
-11 -87 -32 -96 -59 -4 -12 -29 -44 -56 -72 -87 -90 -142 -187 -165 -293 -19
-85 -30 -117 -55 -154 -33 -50 -38 -117 -15 -181 13 -34 13 -32 18 55 2 53 10
99 19 113 16 26 35 30 23 5 -5 -10 -8 -63 -9 -118 0 -80 4 -107 18 -128 21
-32 21 -37 2 -37 -8 0 -15 5 -15 10 0 6 -5 10 -12 10 -6 0 0 -12 15 -27 14
-16 38 -50 52 -78 15 -27 43 -67 63 -87 19 -21 33 -41 29 -45 -8 -7 -506 -8
-513 0 -3 3 -1 15 6 26 8 15 17 20 34 15 14 -3 27 1 36 11 7 9 21 13 31 10 20
-7 89 49 89 72 0 7 -7 27 -16 44 -14 28 -14 31 8 48 19 16 20 21 9 34 -7 9
-25 19 -41 22 -27 6 -40 1 -120 -44 -53 -29 -69 -35 -108 -41 l-43 -7 7 44
c12 83 -52 111 -110 49 -33 -34 -69 -135 -61 -172 2 -10 6 -35 10 -55 4 -26
13 -39 31 -47 37 -17 55 -15 96 13 45 30 44 30 51 3 4 -15 -1 -30 -14 -44 -25
-26 -39 -157 -20 -191 8 -16 8 -22 -2 -26 -27 -10 -127 1 -151 17 -33 21 -68
20 -95 -1 -17 -15 -21 -30 -22 -84 -1 -36 3 -74 8 -84 8 -13 7 -28 -3 -52 -16
-38 -13 -70 12 -112 16 -28 16 -31 0 -55 -9 -14 -18 -50 -21 -79 -4 -44 -1
-57 18 -81 l23 -28 163 1 c155 0 165 2 188 22 19 18 23 33 23 77 0 30 -7 69
-16 87 -14 31 -14 36 1 58 9 14 17 42 18 61 1 20 7 37 12 38 6 0 88 2 182 2
115 1 173 -3 173 -10 0 -5 -14 -30 -32 -53 -31 -43 -40 -88 -24 -122 4 -10 2
-22 -6 -30 -61 -63 -71 -108 -39 -164 20 -36 106 -83 157 -87 44 -4 53 13 25
41 -25 25 -35 26 -55 6 -17 -17 -36 -20 -36 -5 0 6 10 14 23 19 22 9 22 9 -6
22 -25 11 -30 11 -38 -4 -15 -26 -41 -22 -37 6 2 16 10 22 27 22 14 0 27 7 30
18 6 17 8 16 19 -7 6 -14 18 -26 27 -26 17 0 21 25 5 35 -5 3 -10 1 -10 -5 0
-6 -4 -9 -9 -6 -5 3 -7 15 -4 26 3 11 1 26 -4 33 -6 6 -13 25 -17 41 -6 23 -9
27 -17 15 -7 -11 -9 -9 -9 8 0 25 16 39 23 21 4 -10 6 -10 6 0 1 15 21 15 58
1 27 -10 27 -11 9 -25 -17 -12 -18 -16 -6 -40 12 -22 12 -27 0 -36 -12 -8 -12
-9 3 -4 11 3 17 1 16 -7 -4 -33 2 -46 17 -40 13 5 15 2 9 -17 -5 -16 -4 -20 4
-15 14 8 43 -13 36 -26 -3 -4 3 -13 12 -19 15 -9 13 -10 -12 -5 -28 5 -29 5
-10 -10 22 -18 34 -16 49 8 9 14 4 23 -27 50 -42 38 -47 58 -14 54 17 -1 21 3
19 18 -2 11 -4 26 -4 33 -1 6 -7 12 -15 12 -11 0 -11 -4 -1 -20 14 -23 12 -25
-27 -34 -24 -5 -27 -4 -12 5 19 11 15 47 -6 60 -13 9 -1 42 14 37 6 -2 10 -8
10 -13 -1 -14 53 -27 57 -15 2 6 7 8 12 5 5 -3 16 19 25 47 10 29 22 58 27 65
7 9 0 21 -23 43 -32 29 -46 34 -79 31 -13 -2 -13 -1 0 8 11 7 12 13 4 21 -11
11 -44 4 -44 -11 0 -5 -14 -32 -31 -60 -32 -51 -32 -51 -73 -45 -37 5 -39 4
-23 -8 10 -8 14 -17 9 -20 -15 -9 -37 23 -24 36 6 6 8 17 5 25 -4 9 0 13 10
11 9 -2 28 15 46 40 17 23 26 42 20 42 -5 0 -7 5 -3 11 4 7 22 9 45 6 27 -4
39 -1 39 7 0 7 9 21 19 30 16 14 17 23 10 52 -7 22 -6 40 1 53 13 25 13 44 0
36 -12 -8 -13 15 -1 34 5 7 13 11 19 7 5 -3 12 1 16 9 3 8 12 15 21 15 8 0 15
5 15 10 0 6 11 22 24 35 18 18 21 25 10 29 -14 5 -19 42 -8 69 5 14 10 14 47
0 52 -19 77 -22 197 -28 125 -7 88 10 -44 20 -55 4 -107 11 -115 15 -9 5 -50
25 -92 44 -121 56 -174 127 -218 291 -6 22 -11 56 -11 75 0 26 -3 31 -10 20
-18 -28 -24 21 -11 89 7 36 17 93 22 126 17 112 49 194 109 274 66 88 118 138
154 147 14 3 26 13 26 21 0 10 -5 13 -17 8 -10 -4 -24 -9 -30 -12 -7 -3 -13
-1 -13 5 0 12 88 48 96 39 4 -3 -3 -18 -15 -33 -11 -15 -21 -32 -21 -38 0 -7
-7 -21 -15 -32 -11 -14 -14 -15 -9 -3 3 10 0 20 -7 24 -8 6 -11 1 -7 -18 4
-21 0 -27 -21 -33 -14 -3 -21 -8 -15 -10 27 -11 75 24 99 72 14 27 25 54 25
59 0 6 28 19 63 29 34 11 67 23 72 27 19 13 153 39 236 45 76 6 223 -7 236
-20 3 -3 -2 -12 -11 -21 -8 -9 -21 -34 -27 -55 -11 -37 -29 -55 -29 -29 0 6
-6 9 -12 6 -7 -2 -12 -10 -11 -18 2 -11 -17 -14 -95 -15 -53 -1 -124 -2 -157
-2 -61 -1 -135 -13 -169 -27 -16 -7 -18 -4 -14 26 3 19 9 43 13 53 6 13 5 17
-3 13 -15 -10 -35 -75 -28 -93 5 -13 18 -14 78 -9 40 4 90 11 111 15 32 7 37
6 37 -11 0 -10 -6 -19 -12 -19 -9 0 -9 -3 1 -9 19 -12 51 4 51 24 0 12 19 15
104 15 119 0 133 7 160 80 27 75 26 74 91 55 31 -9 60 -14 62 -11 3 3 14 1 25
-5 11 -6 22 -8 25 -6 10 10 -74 46 -158 68 -102 26 -259 32 -374 14z m-1135
-890 c10 -12 10 -24 0 -60 -7 -25 -17 -48 -23 -52 -6 -4 -8 3 -3 18 4 13 10
39 13 58 5 29 3 33 -13 30 -39 -8 -86 -150 -70 -213 13 -54 78 -19 119 64 14
28 27 45 30 38 3 -10 9 -10 27 0 20 12 22 12 17 -3 -4 -9 -3 -14 3 -10 6 3 10
2 10 -4 0 -17 -22 -24 -31 -10 -7 11 -15 6 -37 -21 -75 -95 -114 -119 -142
-85 -34 41 -14 175 36 234 29 34 45 38 64 16z m306 -25 c13 0 24 -5 24 -10 0
-6 -6 -10 -12 -9 -56 7 -58 4 -58 -81 0 -47 -4 -80 -10 -80 -5 0 -10 15 -10
33 l0 32 -25 -30 c-13 -16 -22 -35 -20 -42 2 -7 0 -15 -5 -18 -6 -4 -10 15
-10 44 0 48 -1 50 -19 39 -10 -6 -22 -28 -25 -48 -6 -41 -38 -75 -61 -67 -24
10 -18 34 20 76 32 35 49 81 25 66 -13 -8 -13 1 0 26 17 31 33 23 28 -15 -3
-31 -2 -33 14 -25 10 5 18 16 18 24 0 8 5 15 11 15 7 0 8 -12 4 -32 -5 -26 -4
-29 5 -16 6 9 17 15 25 12 11 -4 15 1 15 17 0 13 3 34 6 47 7 23 7 23 -31 8
-46 -20 -51 -20 -35 -1 7 8 21 15 31 15 10 0 24 7 31 15 7 8 19 12 26 10 8 -3
25 -5 38 -5z m-306 -110 c0 -16 -42 -70 -55 -70 -17 0 -21 50 -5 80 8 15 13
16 35 7 14 -7 25 -14 25 -17z m298 -2 c-3 -35 -28 -52 -28 -20 0 28 10 52 22
52 5 0 8 -14 6 -32z m-196 -210 l1 -33 4 33 c4 30 7 32 44 32 21 0 39 -4 39
-8 0 -4 -16 -6 -35 -4 l-35 4 0 -71 c0 -71 16 -99 22 -38 2 17 8 32 13 32 6 0
11 -15 13 -32 2 -18 7 -33 13 -33 9 0 14 44 10 85 -1 11 1 30 4 42 5 21 10 22
139 22 119 1 136 -1 145 -16 10 -17 10 -17 11 0 0 13 8 17 35 17 33 0 35 -2
36 -32 1 -22 3 -26 6 -13 11 43 53 61 81 33 9 -9 12 -9 12 0 0 7 16 12 40 12
33 0 40 -3 40 -20 0 -13 -7 -20 -20 -20 -11 0 -20 -4 -20 -10 0 -5 7 -10 15
-10 8 0 15 -9 15 -20 0 -11 -7 -20 -15 -20 -8 0 -15 -4 -15 -10 0 -5 9 -10 21
-10 15 0 20 -5 17 -22 -3 -22 -8 -23 -98 -24 -75 -1 -98 2 -107 14 -12 14 -13
14 -13 -1 0 -14 -10 -17 -60 -17 l-60 0 0 65 c0 37 -4 65 -10 65 -6 0 -10 -28
-10 -65 0 -58 -2 -65 -20 -65 -18 0 -20 7 -22 68 l-2 67 -3 -63 c-3 -44 -8
-65 -19 -69 -22 -8 -46 17 -40 43 4 14 0 29 -10 38 -9 9 -11 16 -4 16 6 0 10
12 8 28 -2 21 -9 28 -30 30 l-28 3 0 -70 0 -71 31 0 c16 0 28 -4 25 -9 -3 -5
-46 -9 -96 -9 -74 0 -92 2 -100 16 -9 16 -9 16 -10 0 0 -12 -8 -18 -21 -18
-20 0 -21 4 -15 53 3 28 6 67 6 85 0 30 2 32 35 32 32 0 35 -2 37 -32z m66
-15 c-5 -25 -28 -28 -28 -4 0 12 6 21 16 21 9 0 14 -7 12 -17z m87 -63 c0 -13
-6 -25 -12 -27 -9 -3 -13 6 -13 27 0 21 4 30 13 28 6 -3 12 -15 12 -28z m355
-89 c2 0 -1 -6 -7 -12 -6 -6 -46 -10 -94 -9 -46 1 -95 1 -109 0 -22 -2 -82 -2
-175 1 -53 1 -62 13 -15 19 35 5 380 6 400 1z m-770 -21 c0 -19 7 -20 140 -20
l140 0 0 -35 0 -35 -140 0 c-133 0 -140 -1 -140 -20 0 -16 -7 -20 -35 -20
l-35 0 0 75 0 75 35 0 c28 0 35 -4 35 -20z m437 -102 c1 -38 -3 -68 -8 -68 -5
0 -9 14 -9 30 0 20 -5 30 -15 30 -10 0 -15 -10 -15 -30 0 -16 -4 -30 -10 -30
-6 0 -10 28 -10 63 0 50 -3 64 -15 64 -12 0 -15 -14 -15 -64 0 -35 -4 -63 -10
-63 -6 0 -10 27 -10 60 0 33 -4 60 -10 60 -5 0 -10 5 -10 10 0 7 25 10 68 8
l67 -3 2 -67z m72 15 c14 -69 14 -83 1 -83 -5 0 -10 7 -10 15 0 8 -7 15 -15
15 -8 0 -15 -7 -15 -15 0 -8 -4 -15 -10 -15 -13 0 -13 14 1 83 7 32 17 57 24
57 7 0 17 -25 24 -57z m86 -13 l0 -65 -32 -3 -33 -3 0 71 0 71 33 -3 32 -3 0
-65z m35 0 c0 -40 -4 -70 -10 -70 -6 0 -10 30 -10 70 0 40 4 70 10 70 6 0 10
-30 10 -70z m40 58 c1 -7 7 -26 16 -43 l14 -30 -5 43 c-3 25 -1 42 5 42 6 0
10 -29 10 -70 0 -38 -4 -70 -8 -70 -5 0 -16 21 -24 48 l-16 47 -1 -47 c-2 -77
-21 -56 -21 22 0 56 3 70 15 70 8 0 15 -6 15 -12z m118 -15 c4 -29 -14 -30
-21 -2 -10 37 -27 10 -27 -42 0 -39 3 -49 16 -49 13 0 15 7 11 30 -5 22 -3 30
8 30 16 0 20 -35 9 -64 -7 -19 -35 -21 -52 -4 -13 13 -16 85 -6 113 10 25 58
16 62 -12z m-533 -118 c32 -31 32 -75 1 -111 -22 -26 -29 -28 -119 -32 -114
-5 -161 2 -188 29 -28 28 -25 84 6 114 23 24 30 25 150 25 120 0 127 -1 150
-25z m626 -114 l23 -19 -19 -56 c-11 -31 -22 -56 -26 -56 -22 0 -119 52 -113
61 4 8 9 8 17 0 18 -18 26 -13 52 39 14 28 29 50 34 50 5 0 19 -8 32 -19z
m-811 -66 c15 -14 18 -14 30 0 19 23 121 20 151 -4 20 -16 23 -28 24 -80 l0
-62 -173 -2 -174 -2 4 69 c3 53 8 71 23 82 25 19 94 18 115 -1z m590 -115 c8
-16 8 -18 -4 -14 -10 4 -17 -2 -21 -18 -3 -13 -15 -29 -26 -36 -17 -11 -19 -9
-19 12 0 63 46 100 70 56z"/>
<path d="M376 1719 c-26 -31 -27 -60 -1 -39 13 10 38 70 30 70 -2 0 -15 -14
-29 -31z"/>
<path d="M326 1568 c-10 -65 -12 -108 -4 -108 4 0 8 5 8 10 0 14 28 12 33 -2
11 -32 18 7 12 66 -6 55 -10 66 -26 66 -13 0 -20 -9 -23 -32z m34 -46 c0 -20
-4 -32 -11 -30 -6 2 -10 7 -10 11 1 4 1 24 1 45 0 27 3 33 10 22 5 -8 10 -30
10 -48z"/>
<path d="M583 1530 c0 -41 2 -58 4 -37 2 20 2 54 0 75 -2 20 -4 3 -4 -38z"/>
<path d="M610 1590 c0 -5 5 -10 10 -10 6 0 10 -27 10 -60 0 -33 4 -60 10 -60
6 0 10 27 10 60 0 33 4 60 10 60 6 0 10 5 10 10 0 6 -13 10 -30 10 -16 0 -30
-4 -30 -10z"/>
<path d="M690 1531 c0 -41 4 -71 10 -71 6 0 10 16 10 36 0 21 4 33 10 29 6 -3
10 -19 10 -36 0 -16 4 -29 10 -29 5 0 8 29 7 68 -2 65 -3 67 -29 70 l-28 3 0
-70z"/>
<path d="M786 1578 c-10 -50 -13 -118 -5 -118 5 0 9 5 9 10 0 14 28 12 33 -2
11 -32 19 8 12 67 -5 55 -10 65 -26 65 -11 0 -20 -9 -23 -22z m34 -49 c0 -21
-4 -39 -10 -39 -5 0 -10 21 -10 46 0 27 4 43 10 39 6 -3 10 -24 10 -46z"/>
<path d="M872 1588 c-13 -13 -16 -96 -4 -116 5 -6 20 -11 34 -10 23 2 27 7 30
44 2 34 0 40 -13 37 -11 -3 -16 -14 -15 -31 0 -15 -3 -28 -9 -30 -5 -1 -11 20
-13 48 -2 39 0 50 12 50 8 0 16 -6 19 -12 2 -7 7 -10 11 -7 3 3 4 14 0 23 -7
19 -35 21 -52 4z"/>
<path d="M950 1530 c0 -70 0 -70 28 -70 23 1 24 2 10 11 -22 12 -24 49 -3 49
8 0 15 5 15 10 0 6 -7 10 -15 10 -8 0 -15 9 -15 20 0 11 7 20 15 20 8 0 15 5
15 10 0 6 -11 10 -25 10 -24 0 -25 -2 -25 -70z"/>
<path d="M510 1326 c0 -17 5 -26 16 -26 10 0 14 7 12 22 -5 32 -28 35 -28 4z"/>
<path d="M601 1320 c-1 -8 -4 -25 -7 -37 -5 -17 -2 -23 10 -23 17 0 19 11 6
50 -4 14 -9 18 -9 10z"/>
<path d="M676 1343 c-3 -3 -6 -28 -6 -55 0 -36 4 -48 15 -48 11 0 15 12 15 49
0 47 -9 68 -24 54z"/>
<path d="M112 1158 c4 -10 33 -13 111 -13 147 0 146 19 -1 23 -89 2 -113 0
-110 -10z"/>
<path d="M955 1060 c-10 -22 -16 -43 -13 -46 3 -2 13 14 22 37 22 54 15 61 -9
9z"/>
<path d="M242 978 c-22 -22 -13 -28 43 -28 30 0 55 4 55 8 0 29 -74 44 -98 20z"/>
<path d="M107 973 c-16 -15 -5 -23 33 -23 29 0 40 4 40 15 0 10 -10 15 -33 15
-19 0 -37 -3 -40 -7z"/>
<path d="M1891 2707 c-12 -18 -11 -22 5 -33 11 -8 24 -18 31 -23 8 -7 13 -5
17 5 12 30 6 51 -17 61 -20 9 -26 8 -36 -10z"/>
<path d="M1960 2721 c0 -5 9 -13 20 -16 11 -3 20 -11 20 -16 0 -5 5 -9 10 -9
16 0 7 24 -15 37 -24 15 -35 16 -35 4z"/>
<path d="M1861 2683 c-17 -59 -14 -70 20 -82 52 -18 59 -15 47 19 -5 17 -19
35 -29 40 -14 8 -17 7 -13 -4 5 -13 -12 -33 -21 -24 -2 2 0 21 5 43 12 52 5
58 -9 8z"/>
<path d="M2058 2703 c18 -2 45 -2 60 0 15 2 0 4 -33 4 -33 0 -45 -2 -27 -4z"/>
<path d="M2070 2616 c0 -3 11 -18 25 -33 39 -44 40 -45 55 -91 7 -24 18 -46
23 -49 6 -4 7 -1 2 7 -5 8 -4 11 3 6 6 -4 9 -13 6 -21 -3 -7 10 -41 30 -74 19
-34 33 -67 30 -75 -3 -8 0 -17 6 -21 8 -5 8 -10 0 -20 -8 -9 -7 -14 4 -18 11
-5 12 -14 5 -44 -9 -39 -11 -250 -2 -296 3 -14 12 -28 20 -31 12 -5 14 -1 9
19 -6 23 -5 25 12 16 15 -8 23 -6 38 10 26 29 34 237 10 274 -9 14 -25 25 -36
25 -12 0 -21 8 -24 23 -21 109 -31 143 -60 203 -35 73 -105 168 -137 185 -10
5 -19 8 -19 5z m234 -443 c-4 -10 -9 -35 -12 -55 -2 -21 -8 -38 -14 -38 -5 0
-6 16 -3 38 10 57 15 72 27 72 6 0 7 -7 2 -17z m32 -90 c-4 -49 -12 -89 -17
-91 -5 -2 -9 -13 -9 -25 -1 -22 -21 -57 -34 -57 -3 0 -6 36 -6 80 0 65 3 80
15 80 17 0 35 39 35 76 0 13 5 24 11 24 9 0 10 -25 5 -87z"/>
<path d="M1242 2539 c-173 -14 -279 -47 -329 -101 -63 -67 -104 -282 -83 -437
6 -47 13 -87 14 -89 2 -1 1 49 -2 113 -8 181 20 338 70 395 30 34 58 52 113
71 138 48 686 67 863 30 95 -21 155 -46 184 -78 17 -18 57 -164 59 -213 0 -14
3 -19 6 -11 7 17 -25 177 -43 212 -18 36 -115 84 -208 103 -87 18 -453 20
-644 5z"/>
<path d="M1200 2505 c-286 -29 -335 -89 -335 -410 0 -162 1 -172 25 -219 14
-28 41 -63 60 -78 33 -26 46 -29 160 -38 231 -18 644 -7 805 21 159 28 214
124 202 354 -10 190 -31 256 -99 305 -46 34 -78 44 -193 65 -99 18 -444 18
-625 0z m464 -21 c9 -3 14 -10 11 -14 -6 -9 34 -1 50 10 16 11 179 -7 222 -25
82 -35 116 -87 134 -207 25 -172 6 -340 -43 -385 -28 -25 -108 -65 -108 -53 0
5 -15 4 -32 -1 -32 -9 -73 -14 -208 -24 -61 -4 -373 -6 -469 -2 -55 2 -64 21
-19 40 48 20 113 98 127 152 12 49 13 146 1 185 -4 15 -7 -8 -6 -60 1 -72 -3
-93 -24 -135 -14 -27 -30 -49 -37 -48 -7 2 -10 -3 -7 -11 7 -18 -49 -61 -107
-82 -28 -10 -60 -13 -87 -10 -24 3 -53 1 -64 -5 -28 -15 -52 10 -80 80 -31 81
-31 254 1 366 47 167 104 203 350 221 90 7 94 6 86 -12 -5 -10 -9 -41 -10 -69
0 -43 3 -51 25 -62 22 -11 23 -13 5 -14 -11 -1 -23 -1 -27 0 -11 2 -10 -31 2
-49 8 -12 10 -11 10 8 0 12 5 22 11 22 5 0 7 -6 3 -12 -6 -10 -4 -10 7 0 7 6
32 12 55 12 42 0 66 13 42 23 -9 4 -7 6 3 6 35 2 52 37 46 95 -3 30 -3 57 0
60 8 8 117 8 137 0z m-159 -72 c0 -51 -2 -54 -37 -74 -37 -21 -38 -21 -73 -2
-32 17 -35 22 -35 64 0 62 12 71 85 68 l60 -3 0 -53z"/>
<path d="M1711 2328 c-83 -28 -146 -134 -144 -243 3 -120 99 -229 208 -235 55
-4 124 1 101 7 -16 4 -15 7 10 23 27 18 50 18 39 -1 -11 -16 11 -10 39 12 109
86 102 264 -15 374 -27 25 -59 49 -72 54 -41 16 -131 20 -166 9z m103 -25 c-5
-15 -4 -16 5 -3 9 13 15 13 53 -1 24 -8 42 -20 41 -26 -1 -6 5 -10 14 -9 9 0
22 -9 28 -21 7 -13 14 -21 17 -18 2 3 15 -14 28 -37 37 -66 33 -226 -5 -212
-8 4 -15 14 -16 23 0 13 -2 13 -6 1 -9 -23 -45 -72 -49 -67 -3 3 5 21 16 40
12 20 24 60 27 89 10 106 -75 201 -179 201 -83 0 -141 -39 -173 -115 -30 -74
-9 -163 51 -220 59 -55 147 -65 208 -23 40 27 51 31 41 15 -4 -6 -24 -19 -45
-30 -72 -37 -181 -20 -232 37 -10 10 -27 41 -39 67 -17 39 -20 59 -14 95 4 25
9 62 11 81 4 48 86 125 147 138 66 15 77 14 71 -5z m35 -69 c59 -23 93 -74 98
-144 3 -35 0 -61 -6 -65 -6 -3 -11 1 -11 10 0 17 -3 16 -61 -36 -42 -38 -92
-45 -135 -20 -41 25 -45 11 -5 -18 46 -33 108 -25 149 19 20 21 52 19 52 -4 0
-14 -46 -59 -77 -75 -64 -33 -181 9 -209 75 -22 52 -19 64 15 60 25 -3 32 2
50 36 12 22 19 44 15 49 -3 5 -1 25 5 44 5 19 6 35 3 35 -25 -1 -52 -55 -52
-104 0 -22 -6 -36 -16 -40 -28 -11 -34 -7 -34 21 0 34 38 113 54 113 7 0 19
11 26 25 7 14 17 25 22 25 5 0 7 -4 4 -9 -4 -5 3 -7 15 -4 16 4 17 8 7 14 -24
16 49 10 91 -7z m130 -305 c-24 -34 -36 -42 -49 -34 -5 3 3 23 18 44 20 28 30
36 39 29 10 -8 8 -17 -8 -39z"/>
<path d="M1056 2316 c-46 -17 -91 -59 -116 -107 -24 -47 -43 -154 -36 -202 14
-88 90 -177 151 -177 29 0 29 0 -13 21 -155 77 -142 337 21 420 32 17 41 18
48 7 7 -10 9 -10 9 0 0 27 90 9 134 -27 18 -15 18 -15 8 6 -29 55 -135 85
-206 59z"/>
<path d="M1530 2304 c0 -9 -10 -49 -21 -90 -24 -81 -35 -90 -97 -80 l-37 5 33
-14 c28 -13 37 -13 67 -1 27 12 36 22 45 58 6 24 18 60 26 81 14 38 12 57 -7
57 -5 0 -9 -7 -9 -16z"/>
<path d="M1408 2283 c-28 -7 -21 -19 10 -17 15 1 33 3 40 3 7 1 10 6 7 11 -6
10 -26 11 -57 3z"/>
<path d="M1080 2243 c-86 -32 -138 -149 -110 -248 15 -53 62 -99 117 -114 57
-16 85 -12 32 4 -42 14 -73 36 -81 60 -2 6 -6 9 -10 8 -5 -2 -28 50 -28 63 0
2 10 3 23 2 52 -2 57 1 56 35 0 27 -2 29 -9 12 -8 -17 -9 -15 -7 10 2 23 7 31
27 33 21 3 22 2 11 -11 -7 -9 -11 -26 -9 -39 4 -22 5 -22 16 5 7 16 12 43 12
62 0 25 7 39 28 54 24 18 25 20 6 21 -11 0 -27 -6 -36 -12 -30 -24 -68 -91
-68 -120 0 -26 -3 -29 -27 -26 -25 3 -28 6 -24 38 6 60 53 129 76 110 9 -8 14
-5 17 8 6 20 54 35 73 24 5 -4 20 -7 33 -8 31 -1 65 -33 52 -49 -7 -8 -5 -21
5 -41 8 -16 15 -41 15 -55 0 -26 -27 -59 -48 -59 -6 0 -13 -9 -17 -19 -9 -29
-58 -45 -96 -32 -43 15 -48 6 -9 -14 39 -20 84 -14 117 16 13 13 28 19 39 15
16 -6 15 -8 -1 -26 -10 -11 -13 -20 -7 -20 20 0 55 91 54 142 -1 58 -43 133
-90 161 -29 16 -100 22 -132 10z"/>
<path d="M1440 2243 c-51 -8 -69 -23 -64 -56 4 -36 3 -34 34 -42 39 -9 63 15
64 64 1 22 -1 40 -4 40 -3 -1 -16 -4 -30 -6z m16 -67 c-7 -12 -22 -21 -32 -21
-26 0 -32 45 -8 62 15 11 21 10 36 -4 16 -14 17 -19 4 -37z"/>
<path d="M1200 1879 c-19 -11 -51 -20 -70 -20 l-35 -1 30 -7 c39 -9 55 -5 91
24 34 29 31 29 -16 4z"/>
<path d="M1399 2443 c6 -12 16 -25 21 -28 7 -4 6 -13 -1 -26 -6 -12 -8 -23 -5
-26 3 -3 10 5 15 18 8 21 10 22 16 7 4 -10 11 -18 16 -18 5 0 4 9 -3 20 -10
16 -9 23 12 45 13 14 19 25 13 25 -6 0 -17 -10 -26 -22 l-15 -23 -27 25 c-26
23 -27 24 -16 3z"/>
<path d="M2521 2211 c-1 -13 6 -87 15 -164 15 -128 15 -143 0 -173 -27 -58
-51 -66 -246 -89 l-45 -5 3 -82 c4 -90 22 -91 22 -1 0 59 -14 51 134 73 110
17 165 63 168 142 3 60 -11 199 -23 223 -5 11 -13 38 -18 60 -6 26 -9 32 -10
16z"/>
<path d="M2225 2175 c-8 -17 -13 -258 -6 -352 2 -40 18 -43 28 -5 10 38 7 60
-11 78 -19 18 -21 89 -5 179 6 34 9 75 7 91 -4 26 -5 27 -13 9z"/>
<path d="M2184 1738 c-58 -45 -103 -91 -98 -100 9 -15 103 63 125 104 13 23 8
23 -27 -4z"/>
<path d="M1764 1741 c47 -18 -25 -25 -309 -30 -174 -3 -283 -8 -260 -12 52
-10 199 -11 345 -4 63 3 147 7 185 9 63 3 70 5 73 25 3 17 -2 21 -25 20 -23 0
-25 -2 -9 -8z"/>
<path d="M965 1730 c7 -12 112 -33 135 -27 9 2 24 1 32 -4 12 -7 17 -3 20 16
4 17 1 25 -8 25 -8 0 -14 -4 -14 -10 0 -13 -94 -13 -138 -1 -18 6 -30 6 -27 1z"/>
<path d="M1543 1733 c26 -2 68 -2 95 0 26 2 4 3 -48 3 -52 0 -74 -1 -47 -3z"/>
<path d="M1995 1660 c-4 -6 -10 -8 -15 -5 -5 3 -13 -2 -17 -10 -5 -9 -28 -18
-53 -21 -24 -3 -48 -8 -53 -11 -4 -3 -17 3 -28 13 -18 16 -19 16 -13 1 4 -12
1 -17 -13 -17 -10 0 -24 5 -29 10 -7 7 -18 5 -35 -8 -13 -11 -37 -22 -54 -27
-57 -15 -8 -15 100 -1 82 11 115 11 130 3 11 -6 23 -11 27 -12 3 0 10 -3 14
-7 13 -14 38 -8 64 13 l25 21 -30 -5 c-16 -3 -38 -9 -47 -12 -13 -5 -18 -2
-18 9 0 9 19 25 45 37 25 12 45 25 45 30 0 12 -37 11 -45 -1z"/>
<path d="M1438 1563 c12 -3 22 -12 22 -22 0 -14 7 -16 35 -13 19 2 32 8 29 13
-3 5 13 9 35 9 23 0 40 -3 40 -7 -1 -5 0 -10 1 -13 1 -3 3 -15 4 -27 3 -24 7
-23 -116 -27 -27 -1 -36 21 -11 27 10 2 7 2 -7 0 -14 -3 -44 -7 -67 -10 -24
-3 -43 -9 -43 -14 0 -4 19 -13 43 -20 37 -10 109 -9 281 4 24 2 31 -3 37 -23
5 -20 8 -22 13 -9 6 15 11 15 48 2 40 -14 68 -12 68 5 0 10 -98 38 -122 35
-10 -2 -18 2 -18 7 0 6 -20 10 -45 10 l-44 0 5 40 6 40 -109 -1 c-59 -1 -98
-4 -85 -6z"/>
<path d="M1760 1557 c-89 -7 -109 -12 -90 -19 18 -7 21 -11 11 -17 -13 -8 26
-21 81 -26 15 -2 46 -12 70 -24 23 -11 44 -19 46 -17 5 5 -27 36 -58 58 l-25
16 52 7 c29 4 58 14 64 21 13 16 22 16 -151 1z"/>
<path d="M1275 1503 c-10 -3 -29 -12 -41 -20 -20 -13 -26 -12 -52 1 -30 16
-86 11 -60 -5 11 -8 11 -10 -1 -18 -9 -6 -10 -10 -2 -16 8 -4 10 -24 7 -53 -5
-42 -5 -44 4 -15 6 18 15 35 20 38 6 3 10 11 10 16 0 6 -4 7 -10 4 -5 -3 -10
3 -10 14 0 26 13 27 40 4 25 -22 25 -33 1 -33 -15 0 -22 -14 -35 -71 -20 -91
-20 -107 2 -112 13 -3 10 -8 -16 -23 -18 -10 -47 -27 -63 -37 -33 -19 -49 -49
-31 -55 29 -9 31 -39 7 -98 -34 -81 -31 -100 5 -35 33 60 39 114 15 138 -9 8
-14 20 -12 26 4 13 57 29 73 23 6 -2 14 -34 17 -70 5 -54 13 -76 46 -126 22
-33 38 -67 35 -74 -3 -8 -1 -17 5 -21 6 -3 11 -21 11 -38 0 -47 20 -73 20 -27
1 34 1 34 24 -20 20 -50 21 -56 7 -68 -9 -7 -15 -18 -13 -24 1 -5 -2 -16 -8
-24 -11 -13 -29 -7 -119 35 -24 12 -13 26 26 31 29 4 34 7 20 13 -10 4 -28 7
-40 7 -28 0 -10 17 23 22 21 2 25 9 27 38 l2 35 -10 -32 c-7 -23 -16 -33 -29
-33 -24 0 -25 7 -5 54 9 21 11 36 5 36 -5 0 -10 -4 -10 -9 0 -5 -9 -11 -19
-14 -22 -5 -42 -88 -22 -95 6 -2 11 -8 11 -13 0 -6 -5 -7 -11 -3 -9 5 -10 -1
-5 -22 11 -43 24 -53 59 -48 19 3 40 0 51 -9 17 -12 12 -13 -42 -12 l-60 2
-13 -59 c-13 -59 -24 -72 -32 -40 -4 13 -5 11 -6 -5 -1 -25 -28 -32 -37 -9 -7
19 26 68 42 62 12 -4 39 52 30 61 -10 10 -96 -85 -96 -105 0 -15 -6 -22 -20
-22 -12 0 -17 -5 -14 -14 3 -8 -6 -32 -19 -53 -14 -22 -45 -79 -70 -126 -37
-74 -46 -85 -57 -72 -14 17 -130 22 -130 5 0 -5 18 -10 39 -10 22 0 43 -5 46
-10 4 -6 11 -8 16 -4 5 3 17 0 25 -7 14 -11 14 -14 1 -23 -14 -11 -17 -17 -17
-35 0 -5 -16 -25 -35 -45 -22 -23 -29 -36 -20 -36 8 0 15 -4 15 -10 0 -5 5
-10 11 -10 5 0 7 4 4 10 -4 6 10 9 34 8 32 -1 41 -5 41 -19 0 -12 -7 -16 -25
-15 -18 1 -24 5 -20 16 3 10 1 10 -9 -3 -16 -20 -81 -24 -90 -4 -3 6 -4 0 -1
-16 3 -15 1 -37 -6 -48 -18 -34 0 -36 26 -2 19 24 33 31 59 31 67 0 96 24 80
67 -5 13 -15 16 -40 12 -19 -3 -34 -3 -34 1 0 4 21 43 45 87 72 130 145 277
145 293 0 11 8 13 31 8 17 -3 35 -6 40 -6 5 0 9 -4 9 -10 0 -5 -7 -7 -15 -4
-10 4 -15 0 -15 -15 0 -19 3 -20 20 -11 11 6 20 20 20 31 0 12 5 19 13 16 6
-2 11 -10 10 -16 -2 -7 14 -11 41 -11 25 0 57 -5 71 -10 36 -14 146 -120 138
-134 -3 -6 4 -2 16 10 25 23 21 45 -12 59 -12 6 -27 21 -33 34 l-12 24 -5 -24
-4 -24 -8 23 c-4 12 -11 22 -16 22 -13 0 -11 125 3 155 14 32 28 32 28 -1 0
-14 -4 -23 -9 -20 -9 6 -25 -54 -16 -62 3 -3 6 1 7 9 0 8 4 -6 8 -31 l7 -45 1
57 c1 31 7 69 13 85 l12 28 9 -32 c5 -18 13 -33 18 -33 6 0 9 -30 7 -75 -2
-41 0 -75 5 -75 14 0 40 50 34 65 -3 9 -2 14 3 11 11 -7 22 19 13 29 -4 3 -11
25 -17 48 -7 31 -18 45 -40 57 -16 8 -33 19 -36 23 -3 4 -13 5 -22 1 -15 -5
-15 -3 -1 26 10 19 21 29 30 26 7 -3 18 3 24 13 7 14 5 23 -10 36 -11 10 -34
41 -52 69 -18 28 -35 53 -38 56 -3 3 -15 26 -27 53 -32 68 -9 62 77 -19 38
-37 70 -63 70 -59 0 19 -44 76 -73 94 -18 11 -42 29 -53 39 -12 11 -32 22 -45
24 -27 4 -38 42 -38 143 -1 62 30 219 49 255 11 20 98 65 107 56 3 -2 0 -13
-6 -24 -6 -12 -11 -30 -11 -42 0 -33 30 -89 54 -102 21 -11 21 -11 -1 13 -43
47 -51 121 -17 150 8 6 14 15 14 20 0 9 -51 10 -85 2z m-27 -881 c7 -9 11 -26
8 -37 -3 -11 -6 -37 -6 -58 l0 -38 -31 17 c-17 9 -42 14 -56 11 -13 -2 -27 1
-30 7 -10 15 -5 65 9 100 10 26 14 28 52 22 23 -4 47 -14 54 -24z"/>
<path d="M1194 586 c-4 -24 -12 -36 -23 -36 -14 0 -14 2 -1 11 12 9 12 10 1 7
-26 -7 -24 -28 3 -28 14 0 26 5 26 10 0 6 6 10 14 10 12 0 32 30 24 34 -2 1
-11 7 -20 15 -15 11 -18 8 -24 -23z"/>
<path d="M1968 1457 c-16 -6 -31 -19 -34 -30 -3 -11 -12 -16 -20 -13 -8 3 -13
2 -10 -3 3 -5 -3 -11 -14 -14 -12 -3 -21 1 -24 12 -10 30 2 -93 14 -147 10
-46 14 -51 24 -36 11 14 18 15 44 6 37 -13 36 -14 17 58 -16 61 -19 91 -7 89
20 -3 42 2 42 10 0 14 -37 20 -49 8 -8 -8 -11 -5 -11 10 0 42 58 41 90 0 27
-34 14 -57 -31 -57 -16 0 -29 -4 -29 -10 0 -23 84 -1 93 25 3 6 0 33 -6 58 -9
42 -13 47 -36 46 -14 -1 -38 -6 -53 -12z m-11 -207 c-6 -31 -26 26 -31 90 l-6
65 20 -70 c11 -38 19 -77 17 -85z"/>
<path d="M1024 1393 c-9 -27 -24 -54 -33 -60 -9 -8 -10 -13 -3 -13 15 0 3 -62
-14 -73 -7 -4 -10 -15 -7 -24 4 -9 -1 -21 -11 -28 -15 -12 -13 -15 20 -35 30
-19 38 -20 45 -9 6 10 3 16 -9 20 -9 4 -20 5 -23 3 -3 -2 -6 3 -6 11 0 18 9
19 24 4 15 -15 63 17 63 43 0 18 -2 19 -17 7 -10 -8 -21 -18 -24 -23 -9 -11
-29 1 -29 18 0 6 21 25 47 42 l47 29 -37 3 c-39 3 -43 8 -28 31 6 9 19 12 39
8 22 -4 32 -2 36 9 8 22 8 24 -8 24 -21 0 -46 28 -40 45 4 8 2 15 -4 15 -6 0
-18 -21 -28 -47z"/>
<path d="M2080 1411 c0 -18 41 -94 47 -88 10 10 -8 65 -28 83 -11 10 -19 12
-19 5z"/>
<path d="M2140 1338 c0 -18 0 -48 0 -67 0 -26 -3 -32 -15 -27 -10 4 -15 -1
-15 -15 0 -16 -5 -20 -27 -17 -20 2 -28 8 -27 21 1 10 -3 16 -10 14 -6 -3 -10
-10 -8 -16 2 -9 -3 -9 -19 0 -19 10 -21 9 -16 -6 4 -9 7 -19 7 -21 0 -2 8 -4
19 -4 24 0 37 -17 44 -58 5 -23 3 -34 -7 -38 -7 -3 -13 -16 -13 -29 0 -14 3
-23 7 -20 4 2 7 -12 8 -33 0 -52 28 -113 47 -105 14 5 13 0 -2 -31 -15 -32
-15 -38 -3 -46 22 -14 28 -12 41 11 6 12 7 19 1 15 -5 -3 -12 2 -14 12 -7 25
10 64 24 60 7 -3 19 1 26 9 7 7 22 13 32 13 10 0 22 5 25 10 3 6 17 10 30 10
27 0 38 -24 32 -74 -4 -27 -7 -29 -53 -30 -36 0 -49 3 -50 14 -3 32 -5 34 -15
17 -8 -14 -14 -16 -25 -6 -12 9 -13 9 -9 -2 3 -8 18 -23 33 -33 24 -15 24 -17
5 -13 -19 4 -24 -1 -32 -29 -5 -18 -16 -41 -25 -50 -21 -21 -20 -41 3 -54 27
-14 50 -3 57 29 3 14 9 35 14 46 4 11 11 28 14 38 8 26 43 22 42 -5 -1 -14 5
-23 14 -23 10 0 15 10 15 28 -1 31 10 35 24 9 13 -25 -1 -46 -54 -76 -45 -27
-57 -52 -30 -62 18 -7 85 14 85 27 0 6 4 7 10 4 13 -8 50 13 50 29 0 8 7 19
15 26 8 7 15 27 15 45 0 39 19 47 95 39 48 -6 60 2 17 11 -11 2 -30 9 -41 15
-12 6 -21 7 -21 3 0 -4 -4 -3 -8 2 -4 6 -24 16 -44 22 -37 11 -38 11 -23 -10
8 -12 15 -36 15 -53 0 -26 -4 -31 -17 -28 -12 3 -19 16 -20 36 -3 37 -11 47
-22 29 -5 -8 -14 -10 -21 -6 -10 6 -9 10 4 17 18 10 21 35 5 40 -14 5 -2 68
12 68 5 0 9 4 9 9 0 5 -15 5 -32 1 -18 -4 -32 -11 -31 -17 1 -5 -30 -20 -70
-33 -40 -13 -77 -25 -83 -27 -9 -3 -29 40 -50 107 -2 8 7 23 20 32 23 17 23
16 46 -33 13 -27 27 -49 32 -49 11 0 2 32 -19 73 -7 15 -11 32 -8 37 8 13 -24
1 -57 -22 -45 -31 -45 -19 1 22 25 22 50 40 57 40 24 0 26 21 5 41 -23 22 -25
30 -12 45 8 8 16 78 12 112 -3 27 -21 10 -21 -20z m-6 -153 c4 -10 -2 -19 -17
-24 -26 -10 -35 3 -17 24 16 19 26 19 34 0z m246 -385 c0 -23 -10 -26 -28 -8
-9 9 -12 8 -12 -5 0 -9 -4 -17 -10 -17 -13 0 -13 6 2 30 17 26 48 26 48 0z"/>
<path d="M2635 1360 l-40 -7 45 -1 c25 -1 52 3 60 8 12 8 11 9 -5 8 -11 0 -38
-4 -60 -8z"/>
<path d="M1109 1328 c0 -7 -4 -35 -8 -61 -5 -31 -4 -46 2 -44 9 3 20 117 11
117 -2 0 -4 -6 -5 -12z"/>
<path d="M1274 1318 c-4 -7 -3 -8 4 -4 7 4 12 1 12 -9 0 -9 -4 -13 -10 -10 -5
3 -10 2 -10 -4 0 -5 5 -13 11 -17 16 -9 43 21 36 40 -7 19 -33 21 -43 4z"/>
<path d="M1704 1303 c2 -20 9 -29 25 -31 11 -2 21 1 21 7 0 6 -4 11 -9 11 -5
0 -8 8 -7 17 0 10 -7 19 -16 21 -13 2 -16 -3 -14 -25z"/>
<path d="M1432 1243 c-36 -18 -72 -76 -72 -118 0 -38 25 -92 49 -104 21 -11
21 -11 2 21 -20 35 -37 143 -19 117 7 -10 9 -8 5 8 -3 15 4 29 22 45 l26 23
-25 -29 -25 -30 29 22 c16 12 35 22 43 22 8 0 11 5 7 11 -8 14 27 4 71 -19 17
-9 35 -16 40 -17 6 0 9 -8 9 -18 -1 -9 3 -14 8 -11 6 4 7 -9 3 -33 -12 -77
-16 -85 -30 -79 -10 3 -12 0 -8 -11 5 -12 3 -14 -7 -8 -8 5 -11 4 -6 -3 3 -6
1 -14 -5 -18 -6 -3 -15 -1 -19 6 -5 8 -10 8 -14 2 -3 -6 -15 -8 -25 -5 -10 3
-21 1 -24 -4 -3 -5 14 -10 38 -12 36 -1 50 3 76 27 25 23 32 38 36 78 11 114
-86 186 -185 137z"/>
<path d="M1445 1170 c-3 -5 -1 -10 4 -10 7 0 10 -21 9 -52 l-1 -53 -7 50 -7
50 1 -54 c1 -34 6 -56 14 -59 9 -3 12 14 12 62 0 61 -11 89 -25 66z"/>
<path d="M1511 1166 c-1 -11 -8 -28 -17 -38 -16 -16 -16 -18 0 -24 10 -4 16
-18 16 -35 0 -26 2 -29 20 -19 16 9 19 17 14 53 -5 38 -4 44 17 53 20 9 21 11
5 17 -10 4 -15 3 -11 -3 3 -6 -3 -10 -14 -10 -10 0 -22 6 -24 13 -3 6 -6 3 -6
-7z"/>
<path d="M2255 1172 c-6 -6 61 -101 72 -101 6 -1 13 -6 15 -13 3 -7 10 -8 17
-4 10 6 8 13 -7 30 -27 30 -33 53 -16 60 8 3 51 6 95 7 126 2 91 18 -47 21
-69 2 -127 2 -129 0z"/>
<path d="M2185 1150 c-17 -19 -17 -19 16 -10 19 6 35 10 37 10 2 0 0 5 -3 10
-10 16 -30 12 -50 -10z"/>
<path d="M1698 1042 c-19 -21 -49 -59 -67 -85 l-32 -47 -89 0 c-48 0 -96 3
-105 6 -9 4 -34 34 -57 68 -49 74 -44 52 6 -27 35 -54 37 -56 90 -62 54 -7
143 0 162 13 6 4 25 30 44 57 18 28 47 65 63 83 17 17 28 32 25 32 -3 0 -21
-17 -40 -38z"/>
<path d="M1900 1068 c0 -7 -3 -24 -7 -38 -6 -22 -5 -24 10 -11 19 15 23 46 7
56 -5 3 -10 0 -10 -7z"/>
<path d="M1770 996 c-43 -32 -68 -38 -54 -13 4 7 -9 -4 -29 -22 -38 -36 -52
-58 -17 -26 11 10 20 13 20 7 0 -6 -10 -19 -23 -29 -13 -10 -27 -25 -32 -33
-5 -8 17 9 50 38 32 28 63 52 68 52 5 0 24 7 43 16 19 9 43 14 54 11 12 -3 20
0 20 8 0 11 -32 26 -50 24 -3 0 -25 -15 -50 -33z"/>
<path d="M1807 954 c-10 -19 -15 -39 -12 -44 6 -10 -13 -44 -57 -102 -19 -24
-45 -42 -77 -54 -33 -11 -47 -22 -44 -31 3 -7 0 -13 -6 -13 -6 0 -11 5 -11 11
0 6 -8 8 -19 4 -41 -13 -58 -12 -126 6 -38 10 -71 16 -73 15 -9 -10 56 -46
102 -57 57 -12 159 2 173 24 5 7 19 18 32 26 21 11 25 11 33 -3 5 -9 18 -16
29 -16 12 0 23 -8 26 -20 3 -11 9 -20 14 -20 5 0 9 -5 9 -11 0 -6 -8 -8 -20
-4 -41 13 -100 -37 -100 -84 0 -12 -4 -21 -10 -21 -5 0 -10 -8 -10 -17 0 -24
42 -113 53 -113 5 0 -1 -17 -13 -37 -14 -24 -20 -46 -16 -64 l5 -26 -145 0
c-126 1 -144 3 -138 17 21 51 16 54 -27 15 -24 -22 -46 -42 -49 -44 -3 -2 6 0
19 4 33 10 19 -11 -22 -31 -41 -22 -240 -33 -252 -14 -4 7 -2 16 6 21 7 4 10
11 6 15 -3 4 -12 2 -19 -3 -7 -6 -37 -13 -65 -16 -53 -6 -97 -29 -108 -56 -4
-11 -1 -10 13 2 10 9 22 17 25 17 10 0 -1 -46 -22 -100 -24 -59 -40 -130 -30
-130 15 0 39 58 39 95 0 24 5 35 14 35 8 0 18 10 22 22 20 63 36 91 44 77 7
-11 43 -15 162 -17 l153 -3 47 35 47 36 136 0 c122 0 136 -2 131 -16 -3 -9 -1
-35 5 -57 10 -38 9 -43 -12 -60 -14 -11 -31 -16 -46 -12 -13 3 -23 2 -23 -2 0
-5 -20 -8 -45 -8 -33 0 -45 4 -46 15 0 10 -3 8 -8 -5 -10 -24 6 -37 30 -25 9
5 18 8 20 5 9 -8 89 -12 89 -4 0 5 10 5 23 0 14 -5 30 -5 40 0 10 6 17 6 17 1
0 -5 12 -7 26 -4 16 3 30 -1 35 -9 6 -10 9 -10 9 -1 0 8 18 12 55 12 42 0 55
-3 55 -15 0 -8 -7 -15 -15 -15 -8 0 -15 6 -15 13 0 9 -2 9 -9 -1 -6 -9 -28
-13 -73 -11 -36 1 -70 -1 -76 -5 -7 -4 -26 -3 -44 1 -54 13 -168 5 -168 -12 0
-17 12 -19 26 -6 5 6 38 5 84 -3 41 -8 84 -12 95 -9 11 2 58 7 105 10 91 5
116 18 106 51 -6 17 -15 21 -49 20 -52 -2 -147 9 -156 17 -3 4 -6 21 -7 38 0
18 -3 44 -7 60 -9 33 4 35 40 7 40 -31 88 -41 236 -47 76 -3 140 -9 142 -13 2
-4 -6 -17 -19 -29 -20 -19 -28 -21 -44 -12 -72 39 -147 -48 -83 -96 27 -21 36
-14 13 10 -28 30 -28 52 0 71 31 22 45 20 64 -10 16 -24 16 -26 -5 -55 -25
-34 -24 -35 23 -12 33 15 37 15 55 -1 17 -16 19 -16 24 4 5 20 -5 25 -45 21
-12 -2 -18 5 -18 19 0 18 3 19 22 9 18 -10 20 -9 15 5 -4 9 3 32 14 51 20 33
20 37 5 60 -10 15 -12 26 -6 30 13 8 269 -1 293 -10 9 -4 17 -10 17 -14 0 -4
25 -33 55 -64 30 -31 55 -61 55 -68 0 -8 4 -8 15 1 12 10 18 10 32 -1 11 -10
14 -10 9 -2 -4 8 -2 13 6 13 18 1 -110 120 -129 120 -8 0 -11 5 -8 10 4 6 103
10 266 10 252 0 259 1 259 20 0 19 -7 20 -102 21 -389 4 -440 3 -448 -10 -5
-10 -10 -4 -15 18 -3 17 -10 31 -14 31 -3 0 -20 12 -37 28 -17 15 -60 52 -97
82 -37 30 -67 63 -67 73 0 9 -4 17 -9 17 -4 0 -24 11 -44 25 -24 16 -39 20
-43 13 -4 -6 2 -15 12 -21 30 -17 193 -190 187 -200 -7 -11 28 -36 42 -31 6 3
20 -5 31 -17 19 -22 19 -22 -1 -14 -11 5 -71 11 -134 13 -118 4 -126 7 -148
52 -33 66 -62 105 -84 111 -37 11 -125 10 -152 0 -32 -12 -95 -67 -108 -95 -6
-11 6 -2 28 21 45 51 95 73 162 73 59 0 89 -22 82 -63 -1 -4 10 -19 24 -33 14
-14 25 -28 25 -33 0 -15 -13 -21 -26 -10 -8 7 -14 7 -19 -1 -3 -5 -33 -10 -66
-10 -50 0 -59 3 -59 18 0 10 -12 29 -27 42 l-27 23 -35 -21 c-29 -16 -35 -26
-33 -46 2 -21 -1 -24 -14 -19 -11 4 -15 2 -11 -4 5 -7 64 -9 177 -6 115 3 170
1 170 -6 0 -6 -11 -13 -25 -17 -24 -6 -24 -7 -8 -19 15 -11 7 -14 -58 -20
-102 -9 -262 11 -292 37 -20 18 -20 19 -2 13 53 -19 67 -15 25 7 -33 17 -46
30 -48 49 -2 17 2 26 12 26 8 0 12 -6 8 -15 -3 -10 -1 -13 6 -8 7 4 12 15 12
25 0 22 64 83 115 110 22 12 57 21 78 21 l37 0 -6 82 c-6 63 -4 79 5 74 7 -5
10 -15 7 -23 -4 -11 -2 -13 9 -9 8 3 14 2 14 -2 -1 -4 -1 -18 1 -32 1 -22 2
-23 9 -6 5 14 10 16 15 7 10 -15 -1 -61 -14 -61 -6 0 -10 -6 -10 -14 0 -8 -6
-16 -12 -18 -8 -3 -4 -9 10 -17 30 -16 39 -8 46 37 7 45 -14 113 -41 127 -10
5 -21 14 -24 19 -4 4 -16 5 -28 1 -12 -4 -21 -2 -21 4 0 6 4 11 9 11 18 0 33
61 29 112 -5 43 -11 56 -39 79 -38 31 -76 42 -101 28 -27 -15 -32 8 -9 45 19
30 19 46 1 46 -3 0 -14 -16 -23 -36z m102 -115 c11 -11 22 -32 23 -47 3 -50
-1 -85 -10 -91 -6 -3 -11 -15 -13 -26 -3 -15 -13 -21 -43 -23 -32 -3 -38 -1
-33 12 4 10 1 16 -8 16 -8 0 -15 9 -15 19 0 11 -11 28 -25 39 -14 11 -25 25
-25 32 0 6 -5 8 -12 4 -13 -9 -5 8 28 52 19 27 30 32 67 32 31 1 50 -5 66 -19z
m41 -228 c0 -14 3 -43 6 -63 l6 -38 -41 0 c-23 0 -53 -7 -66 -16 l-25 -16 0
38 c0 22 -3 49 -6 61 -5 17 1 24 33 38 21 9 45 20 53 24 24 13 40 1 40 -28z
m-146 13 c9 -23 7 -36 -4 -29 -6 4 -10 -7 -10 -25 0 -18 4 -29 10 -25 6 4 10
-10 10 -34 0 -23 -4 -41 -8 -41 -5 0 -14 -10 -20 -22 -9 -21 -10 -19 -8 13 2
20 7 42 11 49 5 9 4 15 -3 18 -7 2 -12 16 -13 30 -1 23 -3 21 -14 -13 -7 -23
-9 -44 -4 -49 12 -14 11 -53 -2 -61 -6 -4 -9 0 -7 11 2 11 -2 18 -9 16 -9 -1
-13 15 -13 58 0 76 0 75 33 74 22 -1 27 3 27 23 0 26 15 31 24 7z m84 -266 c7
-7 12 -20 12 -30 0 -14 -8 -18 -34 -18 -45 0 -55 18 -25 41 29 22 31 23 47 7z"/>
<path d="M1850 570 c0 -22 4 -28 15 -24 16 7 18 14 9 38 -10 26 -24 18 -24
-14z"/>
<path d="M822 959 c-12 -18 -12 -23 0 -30 14 -9 22 9 16 36 -2 12 -6 11 -16
-6z"/>
<path d="M1478 846 c-10 -7 -18 -18 -18 -25 0 -17 42 -30 63 -19 18 9 24 48 8
48 -5 0 -15 2 -23 5 -7 2 -21 -2 -30 -9z"/>
<path d="M913 562 c-23 -18 -95 -156 -107 -204 -9 -39 10 -43 24 -5 7 17 20
48 30 67 10 19 23 53 30 75 7 22 22 50 33 63 24 26 20 28 -10 4z"/>
<path d="M2900 556 c0 -12 41 -26 73 -26 20 0 -8 20 -41 29 -24 7 -32 6 -32
-3z"/>
<path d="M2420 552 c-74 -6 -66 -18 12 -19 40 0 110 -2 155 -4 71 -3 106 2 92
15 -6 5 -209 12 -259 8z"/>
<path d="M2813 549 c-15 -5 -15 -6 1 -12 27 -11 46 -8 61 7 12 12 10 13 -16
12 -16 0 -37 -3 -46 -7z"/>
<path d="M1063 464 c-24 -9 -43 -19 -43 -24 0 -5 14 -2 31 7 48 24 131 19 180
-12 23 -15 44 -35 46 -46 3 -10 11 -19 19 -19 7 0 16 -11 20 -25 6 -25 15 -31
27 -19 10 10 -72 101 -111 125 -47 27 -116 33 -169 13z"/>
<path d="M2917 423 c-7 -11 11 -28 56 -56 22 -14 27 -15 27 -3 0 7 -14 19 -30
26 -17 7 -34 19 -39 28 -5 8 -11 10 -14 5z"/>
<path d="M1020 392 c0 -4 -10 -12 -22 -17 -13 -6 -24 -20 -26 -32 -2 -13 -8
-23 -13 -23 -6 0 -17 -6 -24 -14 -10 -10 -11 -16 -2 -25 15 -15 27 -14 27 4 0
13 22 15 136 15 91 0 133 3 129 10 -4 6 -28 10 -53 9 -69 -2 -72 -1 -72 25 0
13 -7 27 -16 30 -24 9 -26 8 -14 -15 9 -15 8 -24 -1 -35 -14 -17 -19 -17 -56
-3 l-28 10 32 29 c17 16 29 31 26 34 -9 8 -23 7 -23 -2z"/>
<path d="M2590 378 c14 -13 34 -30 45 -38 19 -14 19 -14 5 5 -19 26 -52 54
-65 55 -5 0 1 -10 15 -22z"/>
<path d="M1280 347 c0 -8 -10 -19 -22 -25 -23 -10 -23 -11 5 -11 22 -1 27 3
27 24 0 14 -2 25 -5 25 -3 0 -5 -6 -5 -13z"/>
<path d="M1860 270 c-28 -5 -32 -8 -17 -15 11 -4 28 -3 40 3 12 6 40 13 62 15
40 4 40 4 -5 4 -25 0 -61 -3 -80 -7z"/>
<path d="M743 221 c-16 -21 -33 -47 -39 -57 -8 -14 -25 -18 -85 -19 -41 -1
-83 -6 -93 -10 -14 -6 -17 -5 -12 3 9 15 -9 15 -33 0 -15 -9 -24 -8 -45 5 -37
24 -71 21 -90 -8 -34 -51 21 -101 84 -75 16 6 34 9 41 5 6 -4 53 -9 104 -11
70 -3 96 0 104 10 15 17 -6 23 -72 20 -36 -1 -47 2 -43 11 3 8 0 16 -7 19 -7
3 15 4 48 3 39 -1 65 -7 73 -17 12 -13 13 -13 8 3 -3 10 0 17 7 17 12 0 97
117 97 133 0 18 -23 3 -47 -32z m-332 -81 c22 -13 26 -65 5 -73 -45 -17 -81
29 -50 64 20 22 20 22 45 9z m129 -41 c0 -14 -7 -19 -25 -19 -14 0 -25 6 -26
13 0 9 -2 9 -6 -1 -5 -13 -23 -7 -23 8 0 9 23 16 58 17 15 0 22 -5 22 -18z"/>
<path d="M2344 214 c6 -13 14 -24 19 -24 4 0 7 -5 7 -11 0 -14 55 -69 69 -69
6 0 11 -7 11 -16 0 -12 -11 -15 -55 -13 -30 1 -57 0 -61 -3 -3 -4 -12 -4 -20
-1 -11 4 -10 -1 2 -26 19 -38 23 -39 16 -5 -5 30 4 28 44 -8 21 -19 21 -19 17
6 -5 24 -4 25 33 19 22 -3 45 -10 52 -16 10 -8 16 -7 21 1 4 7 15 10 24 6 12
-4 17 -1 17 11 0 15 -7 17 -45 12 -39 -6 -43 -4 -38 11 4 9 13 22 21 28 12 8
10 13 -9 25 -50 32 -51 32 -34 5 10 -14 14 -26 9 -26 -12 0 -74 71 -74 84 0 6
-8 16 -19 23 -17 11 -18 10 -7 -13z"/>
<path d="M1470 201 c0 -17 -4 -33 -10 -36 -5 -3 -10 -15 -10 -26 0 -10 -7 -19
-15 -19 -8 0 -15 4 -15 10 0 5 -7 7 -15 4 -9 -4 -15 -1 -15 7 0 9 -3 10 -10 3
-7 -7 -7 -19 -1 -35 5 -13 10 -19 10 -13 1 6 11 12 24 12 56 3 60 6 64 65 2
31 2 57 -1 57 -3 0 -6 -13 -6 -29z"/>
<path d="M2743 217 c1 -7 34 -33 74 -59 40 -26 73 -44 73 -39 0 4 -11 14 -25
21 -14 8 -23 20 -21 27 3 7 0 15 -6 19 -10 6 -21 8 -66 13 -7 0 -11 5 -8 10 3
5 0 11 -7 14 -8 3 -14 0 -14 -6z"/>
<path d="M2590 211 c0 -6 -8 -7 -17 -4 -11 4 -5 -7 14 -25 17 -18 41 -32 52
-32 12 0 21 -4 21 -10 0 -5 -7 -7 -15 -4 -27 11 -16 -2 30 -35 28 -20 52 -30
62 -27 14 6 12 11 -11 35 -15 16 -52 41 -81 57 -31 15 -50 31 -44 35 8 5 8 8
0 13 -6 4 -11 3 -11 -3z"/>
<path d="M2687 214 c-11 -12 3 -23 20 -17 10 4 14 2 11 -8 -2 -7 9 -23 26 -34
17 -12 62 -42 99 -68 38 -26 73 -47 79 -47 9 0 -70 68 -116 100 -12 8 -41 30
-63 48 -44 34 -46 35 -56 26z"/>
<path d="M2290 194 c0 -9 3 -15 6 -11 7 7 38 -24 47 -48 4 -10 10 -15 13 -12
11 10 -7 42 -37 65 -25 21 -29 21 -29 6z"/>
<path d="M2860 195 c0 -6 85 -55 96 -55 5 0 -5 9 -22 19 -18 11 -35 24 -38 30
-7 11 -36 16 -36 6z"/>
<path d="M2250 179 c0 -8 9 -20 21 -27 12 -8 18 -19 15 -28 -3 -8 1 -14 9 -14
24 0 17 24 -15 55 -20 19 -30 24 -30 14z"/>
<path d="M1346 133 c-5 -11 -10 -14 -14 -6 -5 7 -54 10 -144 9 -132 -1 -137
-1 -147 -23 -14 -30 -5 -50 22 -55 12 -2 86 -3 165 -3 81 0 142 -4 142 -9 0
-5 8 -2 18 7 27 24 62 22 62 -4 0 -11 5 -17 10 -14 6 3 10 21 10 38 0 20 -3
27 -8 19 -12 -19 -281 -19 -293 -1 -6 10 -9 11 -9 2 0 -9 -18 -13 -55 -13 -48
0 -55 2 -55 20 0 14 5 18 18 13 9 -4 20 -11 24 -17 5 -7 8 -7 8 2 0 16 27 16
33 0 3 -8 6 -5 6 5 1 11 6 15 13 11 6 -4 26 -7 45 -6 20 1 33 -3 33 -11 0 -7
4 -6 10 3 7 11 25 14 69 13 54 -2 58 0 54 18 -6 23 -9 24 -17 2z"/>
<path d="M2897 131 c5 -21 69 -78 77 -70 2 2 -15 24 -39 48 -34 35 -43 40 -38
22z"/>
<path d="M975 90 c-4 -6 -11 -8 -16 -5 -5 4 -9 -1 -9 -9 0 -11 9 -16 28 -15
15 0 22 3 15 5 -7 3 -9 12 -6 20 6 16 -3 19 -12 4z"/>
<path d="M2200 72 c0 -13 23 -32 37 -32 11 0 11 5 3 20 -10 19 -40 28 -40 12z"/>
<path d="M2620 40 c31 -23 65 -40 79 -40 23 1 24 2 9 11 -10 5 -18 14 -18 19
0 25 -42 50 -82 50 l-42 0 54 -40z"/>
</g>
</svg>
